# xmcd CD database file
#
# Track frame offsets:
#	150
#	14163
#	31589
#	52191
#	73381
#	115530
#	145567
#	165133
#	187256
#	224228
#	267020
#	290350
#
# Disc length: 4321 seconds
#
# Revision: 0
# Processed by: cddbd v1.5.2PL0 Copyright (c) Steve Scherf et al.
# Submitted via: CDex 1.51
#
DISCID=b510df0c
DTITLE=Emmerhoff and The Melancholy Babies - Spin Out Live
DYEAR=2006
DGENRE=Country
TTITLE0=Meltdown
TTITLE1=Black Mark
TTITLE2=Baby Sinister
TTITLE3=Migraine Boogie
TTITLE4=Into The Black, Towards The Within
TTITLE5=Caravanserai
TTITLE6=Dark Horse
TTITLE7=Monsoon
TTITLE8=Weightless
TTITLE9=Rag-And-Bone Man
TTITLE10=Sticks and Stones
TTITLE11=Spin Out
EXTD=YEAR: 2006
EXTT0=
EXTT1=
EXTT2=
EXTT3=
EXTT4=
EXTT5=
EXTT6=
EXTT7=
EXTT8=
EXTT9=
EXTT10=
EXTT11=
PLAYORDER=
